<svg width="27" height="20" viewBox="0 0 27 20" fill="none" xmlns="http://www.w3.org/2000/svg">
<path d="M17.941 9.784C17.941 10.296 17.909 10.8293 17.845 11.384H5.461C5.54633 12.4933 5.89833 13.3467 6.517 13.944C7.157 14.52 7.93567 14.808 8.853 14.808C10.2183 14.808 11.1677 14.232 11.701 13.08H17.525C17.2263 14.2533 16.6823 15.3093 15.893 16.248C15.125 17.1867 14.1543 17.9227 12.981 18.456C11.8077 18.9893 10.4957 19.256 9.045 19.256C7.29567 19.256 5.73833 18.8827 4.373 18.136C3.00767 17.3893 1.941 16.3227 1.173 14.936C0.405 13.5493 0.021 11.928 0.021 10.072C0.021 8.216 0.394333 6.59467 1.141 5.208C1.909 3.82133 2.97567 2.75467 4.341 2.008C5.70633 1.26133 7.27433 0.887999 9.045 0.887999C10.773 0.887999 12.309 1.25067 13.653 1.976C14.997 2.70133 16.0423 3.736 16.789 5.08C17.557 6.424 17.941 7.992 17.941 9.784ZM12.341 8.344C12.341 7.40533 12.021 6.65867 11.381 6.104C10.741 5.54933 9.941 5.272 8.981 5.272C8.06367 5.272 7.285 5.53867 6.645 6.072C6.02633 6.60533 5.64233 7.36267 5.493 8.344H12.341Z" fill="#1E293B"/>
<path d="M23.3878 19.256C22.4278 19.256 21.6384 18.9787 21.0198 18.424C20.4224 17.848 20.1238 17.144 20.1238 16.312C20.1238 15.4587 20.4224 14.744 21.0198 14.168C21.6384 13.592 22.4278 13.304 23.3878 13.304C24.3264 13.304 25.0944 13.592 25.6918 14.168C26.3104 14.744 26.6198 15.4587 26.6198 16.312C26.6198 17.144 26.3104 17.848 25.6918 18.424C25.0944 18.9787 24.3264 19.256 23.3878 19.256Z" fill="#3B82F6"/>
</svg>
